<?xml version="1.0" encoding="utf-8"?>

<!DOCTYPE svg PUBLIC "-//W3C//DTD SVG 1.0//EN" "http://www.w3.org/TR/2001/REC-SVG-20010904/DTD/svg10.dtd">
<!-- Uploaded to: SVG Repo, www.svgrepo.com, Generator: SVG Repo Mixer Tools -->
<svg version="1.0" id="Layer_1" xmlns="http://www.w3.org/2000/svg" xmlns:xlink="http://www.w3.org/1999/xlink" 
	 width="800px" height="800px" viewBox="0 0 64 64" enable-background="new 0 0 64 64" xml:space="preserve">
<g>
	<path fill="#231F20" d="M20,16h24c0.809,0,1.538-0.487,1.848-1.234c0.31-0.748,0.139-1.607-0.434-2.18l-12-12
		C33.023,0.195,32.512,0,32,0s-1.023,0.195-1.414,0.586l-12,12c-0.572,0.572-0.743,1.432-0.434,2.18C18.462,15.513,19.191,16,20,16z
		"/>
	<path fill="#231F20" d="M16,28h32c0.809,0,1.538-0.487,1.848-1.234c0.31-0.748,0.139-1.607-0.434-2.18l-6.545-6.545H21.131
		l-6.545,6.545c-0.572,0.572-0.743,1.432-0.434,2.18C14.462,27.513,15.191,28,16,28z"/>
	<path fill="#231F20" d="M28,63c0,0.553,0.447,1,1,1h6c0.553,0,1-0.447,1-1v-9h-8V63z"/>
	<path fill="#231F20" d="M57.414,48.586L50.828,42H13.172l-6.586,6.586c-0.572,0.572-0.743,1.432-0.434,2.18
		C6.462,51.513,7.191,52,8,52h48c0.809,0,1.538-0.487,1.848-1.234C58.157,50.018,57.986,49.158,57.414,48.586z"/>
	<path fill="#231F20" d="M12,40h40c0.809,0,1.538-0.487,1.848-1.234c0.31-0.748,0.139-1.607-0.434-2.18L46.828,30H17.172
		l-6.586,6.586c-0.572,0.572-0.743,1.432-0.434,2.18C10.462,39.513,11.191,40,12,40z"/>
</g>
</svg>